<mxfile host="65bd71144e">
    <diagram id="sMnfMlpK5Hj1AKXF918x" name="Page-1">
        <mxGraphModel dx="1084" dy="754" grid="0" gridSize="10" guides="1" tooltips="1" connect="1" arrows="1" fold="1" page="1" pageScale="1" pageWidth="500" pageHeight="300" background="#ffffff" math="0" shadow="0">
            <root>
                <mxCell id="0"/>
                <mxCell id="1" parent="0"/>
                <mxCell id="2" value="Server" style="rounded=0;whiteSpace=wrap;html=1;shadow=0;comic=0;labelBackgroundColor=none;fillColor=#f5f5f5;fontColor=#333333;strokeColor=#000000;spacingTop=0;spacingLeft=4;" parent="1" vertex="1">
                    <mxGeometry x="185" y="40" width="110" height="20" as="geometry"/>
                </mxCell>
                <mxCell id="5" value="Client" style="rounded=0;whiteSpace=wrap;html=1;shadow=0;comic=0;labelBackgroundColor=none;fillColor=#f5f5f5;fontColor=#333333;strokeColor=#000000;spacingTop=0;spacingLeft=4;" parent="1" vertex="1">
                    <mxGeometry x="55" y="220" width="110" height="20" as="geometry"/>
                </mxCell>
                <mxCell id="8" value="Client" style="rounded=0;whiteSpace=wrap;html=1;shadow=0;comic=0;labelBackgroundColor=none;fillColor=#f5f5f5;fontColor=#333333;strokeColor=#000000;" parent="1" vertex="1">
                    <mxGeometry x="210" y="220" width="90" height="20" as="geometry"/>
                </mxCell>
                <mxCell id="37" value="Client" style="rounded=0;whiteSpace=wrap;html=1;shadow=0;comic=0;labelBackgroundColor=none;fillColor=#f5f5f5;fontColor=#333333;strokeColor=#000000;" parent="1" vertex="1">
                    <mxGeometry x="355" y="220" width="90" height="20" as="geometry"/>
                </mxCell>
                <mxCell id="40" value="" style="endArrow=classic;html=1;fontColor=#000000;strokeColor=#B20000;rounded=0;fillColor=#e51400;" parent="1" edge="1">
                    <mxGeometry width="50" height="50" relative="1" as="geometry">
                        <mxPoint x="194" y="77" as="sourcePoint"/>
                        <mxPoint x="113" y="214" as="targetPoint"/>
                    </mxGeometry>
                </mxCell>
                <mxCell id="43" value="" style="endArrow=classic;html=1;fontColor=none;strokeColor=#001DBC;rounded=0;noLabel=1;labelBackgroundColor=none;fillColor=#0050ef;" parent="1" edge="1">
                    <mxGeometry width="50" height="50" relative="1" as="geometry">
                        <mxPoint x="91" y="210" as="sourcePoint"/>
                        <mxPoint x="174" y="74" as="targetPoint"/>
                    </mxGeometry>
                </mxCell>
                <mxCell id="44" value="" style="endArrow=classic;html=1;fontColor=#000000;strokeColor=#B20000;rounded=0;fillColor=#e51400;" parent="1" edge="1">
                    <mxGeometry width="50" height="50" relative="1" as="geometry">
                        <mxPoint x="255" y="77" as="sourcePoint"/>
                        <mxPoint x="254.5" y="215" as="targetPoint"/>
                    </mxGeometry>
                </mxCell>
                <mxCell id="45" value="" style="endArrow=classic;html=1;fontColor=#000000;strokeColor=#001DBC;rounded=0;fillColor=#0050ef;" parent="1" edge="1">
                    <mxGeometry width="50" height="50" relative="1" as="geometry">
                        <mxPoint x="235" y="214" as="sourcePoint"/>
                        <mxPoint x="235" y="72" as="targetPoint"/>
                    </mxGeometry>
                </mxCell>
                <mxCell id="46" value="" style="endArrow=classic;html=1;fontColor=#000000;strokeColor=#B20000;rounded=0;fillColor=#e51400;" parent="1" edge="1">
                    <mxGeometry width="50" height="50" relative="1" as="geometry">
                        <mxPoint x="325" y="76" as="sourcePoint"/>
                        <mxPoint x="415" y="214" as="targetPoint"/>
                    </mxGeometry>
                </mxCell>
                <mxCell id="47" value="" style="endArrow=classic;html=1;fontColor=#000000;strokeColor=#001DBC;rounded=0;fillColor=#0050ef;" parent="1" edge="1">
                    <mxGeometry width="50" height="50" relative="1" as="geometry">
                        <mxPoint x="388" y="209" as="sourcePoint"/>
                        <mxPoint x="302" y="77" as="targetPoint"/>
                    </mxGeometry>
                </mxCell>
                <mxCell id="29" value="http://..." style="rounded=0;whiteSpace=wrap;html=1;shadow=0;comic=0;labelBackgroundColor=none;fillColor=#f5f5f5;fontColor=#333333;strokeColor=#000000;spacingTop=0;spacingLeft=4;" parent="1" vertex="1">
                    <mxGeometry x="85" y="120" width="310" height="20" as="geometry"/>
                </mxCell>
                <mxCell id="48" value="&lt;font style=&quot;font-size: 8px&quot;&gt;Request&lt;/font&gt;" style="text;html=1;align=center;verticalAlign=middle;resizable=0;points=[];autosize=1;strokeColor=none;fillColor=none;fontColor=#000000;" parent="1" vertex="1">
                    <mxGeometry x="45" y="187" width="40" height="20" as="geometry"/>
                </mxCell>
                <mxCell id="49" value="&lt;font style=&quot;font-size: 8px&quot;&gt;Response&lt;/font&gt;" style="text;html=1;align=center;verticalAlign=middle;resizable=0;points=[];autosize=1;strokeColor=none;fillColor=none;fontColor=#000000;" parent="1" vertex="1">
                    <mxGeometry x="132" y="187" width="46" height="20" as="geometry"/>
                </mxCell>
                <mxCell id="50" value="&lt;font style=&quot;font-size: 8px&quot;&gt;Request&lt;/font&gt;" style="text;html=1;align=center;verticalAlign=middle;resizable=0;points=[];autosize=1;strokeColor=none;fillColor=none;fontColor=#000000;" parent="1" vertex="1">
                    <mxGeometry x="333" y="187" width="40" height="20" as="geometry"/>
                </mxCell>
                <mxCell id="51" value="&lt;font style=&quot;font-size: 8px&quot;&gt;Request&lt;/font&gt;" style="text;html=1;align=center;verticalAlign=middle;resizable=0;points=[];autosize=1;strokeColor=none;fillColor=none;fontColor=#000000;" parent="1" vertex="1">
                    <mxGeometry x="189" y="187" width="40" height="20" as="geometry"/>
                </mxCell>
                <mxCell id="52" value="Response" style="text;html=1;align=center;verticalAlign=middle;resizable=0;points=[];autosize=1;strokeColor=none;fillColor=none;fontColor=#000000;fontSize=8;" parent="1" vertex="1">
                    <mxGeometry x="262" y="190" width="46" height="14" as="geometry"/>
                </mxCell>
                <mxCell id="53" value="&lt;font style=&quot;font-size: 8px&quot;&gt;Response&lt;/font&gt;" style="text;html=1;align=center;verticalAlign=middle;resizable=0;points=[];autosize=1;strokeColor=none;fillColor=none;fontColor=#000000;" parent="1" vertex="1">
                    <mxGeometry x="415" y="187" width="46" height="20" as="geometry"/>
                </mxCell>
                <mxCell id="54" value="&lt;font color=&quot;#000000&quot; style=&quot;font-size: 8px&quot;&gt;Client&lt;span style=&quot;white-space: pre&quot;&gt;&#9;&lt;span style=&quot;white-space: pre&quot;&gt;&#9;&lt;/span&gt;&lt;/span&gt;: Computer&lt;br&gt;Server&lt;span style=&quot;white-space: pre&quot;&gt;&#9;&lt;span style=&quot;white-space: pre&quot;&gt;&#9;&lt;/span&gt;&lt;/span&gt;:&amp;nbsp;Weather service&lt;br&gt;Response &lt;span style=&quot;white-space: pre&quot;&gt;&#9;&lt;/span&gt;: Weather&lt;br&gt;Request&lt;span style=&quot;white-space: pre&quot;&gt;&#9;&lt;/span&gt;&lt;span style=&quot;white-space: pre&quot;&gt;&#9;&lt;/span&gt;: Location&lt;br&gt;&lt;/font&gt;" style="text;html=1;align=left;verticalAlign=middle;resizable=0;points=[];autosize=1;strokeColor=none;fillColor=none;" vertex="1" parent="1">
                    <mxGeometry x="16" y="25" width="125" height="66" as="geometry"/>
                </mxCell>
            </root>
        </mxGraphModel>
    </diagram>
</mxfile>